<?xml version="1.0" encoding="UTF-8" standalone="no"?>
<!-- Created with Inkscape (http://www.inkscape.org/) -->

<svg
   xmlns:dc="http://purl.org/dc/elements/1.1/"
   xmlns:cc="http://creativecommons.org/ns#"
   xmlns:rdf="http://www.w3.org/1999/02/22-rdf-syntax-ns#"
   xmlns:svg="http://www.w3.org/2000/svg"
   xmlns="http://www.w3.org/2000/svg"
   xmlns:sodipodi="http://sodipodi.sourceforge.net/DTD/sodipodi-0.dtd"
   xmlns:inkscape="http://www.inkscape.org/namespaces/inkscape"
   width="256"
   height="256"
   viewBox="0 0 256 256"
   id="svg2"
   version="1.1"
   inkscape:version="0.91 r"
   sodipodi:docname="muon-icon.svg">
  <defs
     id="defs4" />
  <sodipodi:namedview
     id="base"
     pagecolor="#ffffff"
     bordercolor="#666666"
     borderopacity="1.0"
     inkscape:pageopacity="0.0"
     inkscape:pageshadow="2"
     inkscape:zoom="0.49497475"
     inkscape:cx="267.21481"
     inkscape:cy="117.28063"
     inkscape:document-units="px"
     inkscape:current-layer="layer1"
     showgrid="true"
     units="px"
     inkscape:showpageshadow="false"
     inkscape:window-width="1366"
     inkscape:window-height="731"
     inkscape:window-x="0"
     inkscape:window-y="0"
     inkscape:window-maximized="1">
    <inkscape:grid
       empspacing="16"
       spacingx="2"
       spacingy="2"
       type="xygrid"
       id="grid4136" />
  </sodipodi:namedview>
  <metadata
     id="metadata7">
    <rdf:RDF>
      <cc:Work
         rdf:about="">
        <dc:format>image/svg+xml</dc:format>
        <dc:type
           rdf:resource="http://purl.org/dc/dcmitype/StillImage" />
        <dc:title></dc:title>
      </cc:Work>
    </rdf:RDF>
  </metadata>
  <g
     inkscape:label="Layer 1"
     inkscape:groupmode="layer"
     id="layer1"
     transform="translate(0,-796.36219)"
     style="opacity:1">
    <path
       style="opacity:1;fill:#8800aa;fill-opacity:1;fill-rule:evenodd;stroke:none;stroke-width:20;stroke-linecap:butt;stroke-linejoin:round;stroke-miterlimit:4;stroke-dasharray:none;stroke-dashoffset:0;stroke-opacity:1"
       id="path4138"
       sodipodi:type="arc"
       sodipodi:cx="64"
       sodipodi:cy="988.36218"
       sodipodi:rx="32"
       sodipodi:ry="32"
       sodipodi:start="0.0020278108"
       sodipodi:end="0.0019262326"
       sodipodi:open="true"
       d="m 95.999934,988.42707 a 32,32 0 0 1 -32.064011,31.93503 32,32 0 0 1 -31.93586,-32.06318 32,32 0 0 1 32.062389,-31.93668 32,32 0 0 1 31.937489,32.06158" />
    <path
       style="opacity:1;fill:#8800aa;fill-opacity:1;fill-rule:evenodd;stroke:none;stroke-width:20;stroke-linecap:butt;stroke-linejoin:round;stroke-miterlimit:4;stroke-dasharray:none;stroke-dashoffset:0;stroke-opacity:1"
       id="path4149"
       sodipodi:type="arc"
       sodipodi:cx="192"
       sodipodi:cy="988.36218"
       sodipodi:rx="32"
       sodipodi:ry="32"
       sodipodi:start="0.0020278108"
       sodipodi:end="0.0019262326"
       sodipodi:open="true"
       d="m 223.99993,988.42707 a 32,32 0 0 1 -32.06401,31.93503 32,32 0 0 1 -31.93586,-32.06318 32,32 0 0 1 32.06239,-31.93668 32,32 0 0 1 31.93749,32.06158" />
    <path
       style="opacity:1;fill:#8800aa;fill-opacity:1;fill-rule:evenodd;stroke:none;stroke-width:20;stroke-linecap:butt;stroke-linejoin:round;stroke-miterlimit:4;stroke-dasharray:none;stroke-dashoffset:0;stroke-opacity:1"
       id="path4151"
       sodipodi:type="arc"
       sodipodi:cx="128"
       sodipodi:cy="892.36218"
       sodipodi:rx="32"
       sodipodi:ry="32"
       sodipodi:start="0.0020278108"
       sodipodi:end="0.0019262326"
       sodipodi:open="true"
       d="m 159.99993,892.42707 a 32,32 0 0 1 -32.06401,31.93505 32,32 0 0 1 -31.935857,-32.0632 32,32 0 0 1 32.062387,-31.93668 32,32 0 0 1 31.93749,32.06158" />
    <path
       style="opacity:1;fill:none;fill-opacity:1;fill-rule:evenodd;stroke:#8800aa;stroke-width:10;stroke-linecap:butt;stroke-linejoin:round;stroke-miterlimit:4;stroke-dasharray:none;stroke-dashoffset:0;stroke-opacity:1"
       id="path4155"
       sodipodi:type="arc"
       sodipodi:cx="128"
       sodipodi:cy="956.36218"
       sodipodi:rx="64"
       sodipodi:ry="64"
       sodipodi:start="0.0020278108"
       sodipodi:end="0.0019262326"
       sodipodi:open="true"
       d="M 191.99987,956.49196 A 64,64 0 0 1 127.87185,1020.3621 64,64 0 0 1 64.000125,956.23565 64,64 0 0 1 128.1249,892.3623 64,64 0 0 1 191.99988,956.48546" />
  </g>
</svg>
